<?xml version="1.0" encoding="utf-8"?>
<!-- Generator: Adobe Illustrator 20.1.0, SVG Export Plug-In . SVG Version: 6.00 Build 0)  -->
<svg width="238px" height="56px" version="1.1" id="Layer_1" xmlns="http://www.w3.org/2000/svg" xmlns:xlink="http://www.w3.org/1999/xlink" x="0px" y="0px"
	 viewBox="0 0 200.9 47.2" style="enable-background:new 0 0 200.9 47.2;" xml:space="preserve">
<style type="text/css">
	.st0{enable-background:new    ;}
	.st1{fill:#FFFFFF;}
</style>
<g>
	<g>
		<g class="st0">
			<g class="st0">
				<g>
					<path class="st1" d="M17.7,0.8c-1,0.3-1,0.3-1.5,0.5c-0.9,0.3-0.9,0.3-1.5,0.6c-0.8,0.3-0.8,0.3-1.2,0.5
						c-0.7,0.4-0.7,0.4-1.1,0.6c-0.7,0.4-0.7,0.4-1,0.6c-0.7,0.4-0.7,0.4-1,0.7C9.6,4.8,9.5,4.8,9.2,5.1C8.4,5.7,8.4,5.7,8,6.1
						c1.7-1.6,4.3-3.2,7-4.3C15.9,1.3,16.8,1,17.7,0.8"/>
					<g>
						<path class="st1" d="M4.4,10.2C4.2,10.4,4,10.8,3.8,11C4,10.7,4.2,10.4,4.4,10.2"/>
					</g>
					<g>
						<path class="st1" d="M18.9,41.3c-0.5,0.7-1,1.4-1.2,2C18,42.7,18.4,42,18.9,41.3"/>
					</g>
					<polyline class="st1" points="0.4,20.8 0.4,20.8 0.4,20.8 					"/>
					<g>
						<path class="st1" d="M0.3,25.1c0,0.3,0,0.5,0,0.7C0.3,25.6,0.3,25.3,0.3,25.1"/>
					</g>
					<g>
						<path class="st1" d="M1.2,29.4c-0.1,0.5,0,0.9,0.1,1.3C1.2,30.3,1.1,29.9,1.2,29.4"/>
					</g>
					<g>
						<path class="st1" d="M6.2,39.4c-0.4-0.5-0.9-1-1.2-1.5l0,0c0.4,0.5,1,1.2,1.4,1.7C6.4,39.5,6.3,39.4,6.2,39.4"/>
					</g>
					<g>
						<path class="st1" d="M17.7,45.9c-0.3-0.4-0.4-0.8-0.3-1.4C17.3,45,17.4,45.5,17.7,45.9"/>
					</g>
					<path class="st1" d="M0.4,20.8c0-0.2,0.1-0.4,0.1-0.6c0.1-0.6,0.2-1.2,0.3-1.8c0,0.1,0,0.1,0,0.2l-0.2,0.8L0.4,20.8L0.4,20.8"
						/>
					<path class="st1" d="M4.4,10.2C4.7,9.8,4.9,9.4,5.3,9l0,0L5,9.4C4.6,9.8,4.2,10.5,3.9,11C4,10.7,4.2,10.4,4.4,10.2"/>
				</g>
			</g>
			<g class="st0">
				<g class="st0">
					<path class="st1" d="M33,13.8c-0.1,0-0.2,0-0.3,0c0-0.1,0.1-0.2,0.1-0.2h0.1C33,13.7,33,13.8,33,13.8"/>
				</g>
				<g>
					<g>
						<path class="st1" d="M6.7,7.5C7,7,7.5,6.6,8,6.1c0.8-0.7,0.8-0.7,1.2-1c0.7-0.6,0.7-0.6,1.1-0.8c0.7-0.5,0.7-0.5,1-0.7
							C12,3.2,12,3.2,12.3,3C13,2.6,13,2.6,13.4,2.4C14.2,2,14.2,2,14.6,1.9c0.8-0.3,0.9-0.4,1.5-0.6c1-0.3,1-0.3,1.5-0.5
							c3-0.8,4.9-0.4,4.5,1.3C22,2.7,21.6,3.3,21,3.9c-0.5,0.2-1.6,0-1.8-0.2c0.5-0.6,0.8-1.1,0.9-1.5c0.4-1.7-2.1-1.8-5.7-0.3
							c-2.8,1.2-5.4,3-6.6,4.5C7.4,6.8,7,7.1,6.7,7.5"/>
						<path class="st1" d="M6.7,7.5C6.3,7.9,6.1,8.2,6,8.6C6.1,8.2,6.3,7.9,6.7,7.5"/>
					</g>
					<g>
						<path class="st1" d="M22.1,0.1c0.6,0,1.4-0.1,2-0.1c2.1,0,3.1,0.8,2.7,2.4c-0.5,1.9-3.2,4.6-6.7,7c-0.7,0.3-1.4-0.6-1.2-1
							c0-0.1,0.1-0.1,0.1-0.1c3.1-2.1,5.4-4.4,5.9-6.1c0.4-1.6-0.9-2.3-3.2-2.1L22.1,0.1"/>
						<path class="st1" d="M3.9,11c-0.1,0.2-0.3,0.6-0.5,0.8C3.5,11.5,3.7,11.2,3.9,11"/>
					</g>
					<path class="st1" d="M34.1,2.4C35.3,3,35.8,4,35.4,5.5C34.2,10,25.4,16.9,15.8,21c-1.8,0.8-3.6,1.4-5.2,1.9
						c-0.9,0.1-1-1.1-0.6-1.7c0.1-0.2,0.2-0.2,0.3-0.3c1.5-0.4,3.1-1,4.8-1.7c9.1-3.9,17.4-10.5,18.5-14.7C34,3,33.4,2,32.1,1.5
						C32.7,1.8,33.5,2.1,34.1,2.4"/>
					<path class="st1" d="M44.5,12.3l0.3,0.5c0.3,0.8,0.3,0.8,0.3,1.2v0.1c-0.3-0.1-0.9-1.3-1-1.8c0-0.6-0.1-1-0.4-1.4L44.5,12.3"/>
					<path class="st1" d="M46.6,17.6c0.1,0.5,0.1,1.1-0.1,1.8c-1.2,4.4-8.7,10.9-17.8,15.6c-1,0.4-1.6-0.3-1.4-1
						c0.1-0.3,0.3-0.5,0.5-0.6C37,28.6,44.7,22,45.9,17.5c0.2-0.8,0.2-1.5,0-2.1C46.2,16.2,46.5,17,46.6,17.6"/>
					<path class="st1" d="M47.3,21.8v0.8c0,0.4,0,0.7-0.1,1.2c-0.7,2.7-4,6.2-8.5,9.6c-0.7,0.5-1.1-0.2-1-0.7
						c0.1-0.4,0.4-0.7,0.5-0.8c4.7-3.5,8.1-7.1,8.8-9.9c0.1-0.5,0.2-1,0.1-1.5L47.3,21.8"/>
					<g>
						<path class="st1" d="M5.9,10.1C5.8,9.8,5.7,9.6,5.8,9.2C5.7,9.6,5.8,9.8,5.9,10.1"/>
						<path class="st1" d="M16.2,7.1c0.1,0.1,0.2,0.4,0,0.6c-1,0.6-2.1,1.2-3.3,1.6c-3.5,1.5-6.3,1.7-7,0.7c0.4-0.5,0.9-1,1.3-1.5
							c0.6,0.8,2.8,0.6,5.6-0.6c0.9-0.4,1.8-0.8,2.6-1.3C15.7,6.5,16.1,7,16.2,7.1"/>
					</g>
					<g>
						<path class="st1" d="M3.4,13.9c-0.2-0.3-0.3-0.7-0.3-1.2C3.1,13.2,3.1,13.5,3.4,13.9L3.4,13.9"/>
						<path class="st1" d="M11.5,12.9c0,0.5-0.1,1.2-4.4,1.8c-1.2,0.2-2.9,0.1-3.7-0.8l0,0c0.3-0.6,0.6-1.1,1-1.7
							c0.8,1,3.3,1,6.7-0.1C11.5,12,11.5,12.9,11.5,12.9"/>
					</g>
					<g>
						<path class="st1" d="M1.7,18.1c-0.3-0.4-0.4-0.9-0.3-1.5C1.3,17.2,1.4,17.7,1.7,18.1"/>
						<path class="st1" d="M28.9,0.6c0.4,0.1,0.7,0.2,0.9,0.2c1.3,0.5,1.8,1.4,1.4,2.8c-1,3.8-8.5,9.7-16.7,13.2
							C8,19.5,3,20,1.7,18.1c0.2-0.6,0.4-1.2,0.6-1.8C3.5,18,8.1,17.6,14,15.1C21.5,11.8,28.4,6.4,29.3,3c0.3-1.3-0.1-2.1-1.2-2.5
							C28.3,0.4,28.3,0.4,28.9,0.6"/>
					</g>
					<g>
						<polyline class="st1" points="0.4,20.8 0.4,20.8 0.4,20.8 						"/>
						<path class="st1" d="M2,22.6c-0.1,0.3-0.2,0.7-0.4,0.6c-1-0.5-1.4-1.3-1.3-2.5c-0.1,0.7,0.1,1.3,0.4,1.7
							c0.1-0.6,0.2-1.3,0.3-1.9c0.2,0.3,0.5,0.5,0.9,0.7C2.2,21.6,2,22.6,2,22.6"/>
					</g>
					<g>
						<path class="st1" d="M0.3,25.8c0-0.2,0-0.5,0-0.7C0.3,25.3,0.3,25.6,0.3,25.8"/>
						<path class="st1" d="M37.4,4.3l1,0.7c0.8,0.7,1.1,1.7,0.8,3c-1.3,5-11.1,12.7-21.8,17.2C7.2,29.6-0.2,29.4,0.3,25.1
							c-0.1,0.7,0.1,1.4,0.4,1.9c-0.1-0.6-0.1-1.3-0.1-1.9C7.3,32.2,37.4,13.8,37.7,6c0.1-1.4-0.7-1.9-1.1-2.2L37.4,4.3"/>
					</g>
					<g>
						<path class="st1" d="M1.3,30.7c-0.1-0.4-0.2-0.8-0.1-1.3C1.1,29.9,1.2,30.3,1.3,30.7"/>
						<path class="st1" d="M42,8.5c0.6,0.7,0.7,1.6,0.4,2.8C41,16.6,30.7,24.7,19.3,29.5C8.5,34.2,0.6,34,1.2,29.4
							c-0.1,0.8,0.1,1.5,0.5,2c-0.2-0.6-0.4-1.2-0.5-1.9C3,32,9.8,31.4,18.5,27.7C29.6,23,39.7,15,41.1,9.8c0.3-1.3,0.1-2.2-0.6-2.9
							C41,7.4,41.5,8,42,8.5"/>
					</g>
					<g>
						<path class="st1" d="M39.4,21.6c0.2,0.6,0,1-0.2,1.3c-4.4,4-10.9,8-17.7,10.9C11.4,38,3.8,38.3,3.1,34.7
							c-0.1-0.3,0-0.1,0.1-0.2c0,0.1,0,0.6,0.4,1.2c-0.1-0.2-0.2-0.3-0.3-0.5c-0.1-0.1-0.1-0.2-0.2-0.3c-0.2-0.3-0.3-0.7-0.5-1
							c1.9,2.5,8.9,2,17.9-1.9c6.8-2.9,13.3-7,17.7-10.9C39,20.7,39.3,21.3,39.4,21.6"/>
					</g>
					<path class="st1" d="M14.1,39.9c0.1,0.2,0.2,0.6-0.2,0.7c-3.6,0.6-6.2,0.3-7.4-1c-0.4-0.5-1-1.2-1.4-1.7
						c1.1,1.4,3.8,1.8,7.7,1.2C13.5,39.1,14,39.7,14.1,39.9"/>
					<path class="st1" d="M25.1,40.3c0.1,0.1,0.1,0.5-0.5,0.8c-6.9,2.7-12.3,3.3-14.5,1.8c-0.5-0.4-1.2-0.9-1.7-1.3
						c2.1,1.8,7.8,1.2,15.2-1.7C24.7,39.6,25.1,40.3,25.1,40.3"/>
					<path class="st1" d="M47.3,25.8c-0.1,0.6-0.2,1.3-0.2,1.8c0,0.1,0,0.2-0.1,0.3c-1.2,4.3-9.7,11-19,15c-6.1,2.6-11,3.3-13.4,2.4
						c-0.6-0.3-1.4-0.6-1.9-0.9c8.2,3.4,33.5-10.4,34.7-18.9L47.3,25.8"/>
					<path class="st1" d="M45.6,32.6c-3.5,7.2-19.7,15.2-26.1,14.2c-0.7-0.1-1.6-0.3-2.2-0.5c2.3,0.7,6.6-0.1,11.8-2.3
						c8.4-3.6,16.1-9.6,17.3-13.5C46.2,31.1,45.9,32,45.6,32.6"/>
					<path class="st1" d="M40.4,39.8c0,0.1-0.2,0.4-0.6,0.7c-2.2,1.8-5.2,3.6-8.3,4.9c-2.6,1.1-4.9,1.7-6.6,1.8c-0.7,0-1.7,0-2.5,0
						c2,0.1,4.9-0.6,8.4-2c3.5-1.5,6.9-3.5,9.4-5.6c0.1,0,0.1-0.1,0.2-0.1c0,0,0,0.1,0.1,0.1C40.5,39.6,40.5,39.7,40.4,39.8"/>
					<path class="st1" d="M5.9,10.1C5.8,9.8,5.7,9.6,5.8,9.2c0-0.1,0-0.2,0.1-0.3c0.3-0.4,0.8-0.8,1.3-1.2C7.1,8,7.1,8.3,7.3,8.5
						C6.8,9,6.4,9.5,5.9,10.1"/>
					<path class="st1" d="M3.4,13.9c-0.2-0.3-0.3-0.7-0.3-1.2c0-0.1,0-0.2,0.1-0.4c0.3-0.5,0.7-1,1-1.5c-0.1,0.6-0.1,1,0.2,1.3
						C4,12.8,3.7,13.3,3.4,13.9"/>
					<path class="st1" d="M1.7,18.1c-0.3-0.4-0.4-0.9-0.3-1.5c0-0.2,0-0.3,0.1-0.5c0.2-0.6,0.4-1.1,0.7-1.7
						c-0.2,0.7-0.1,1.3,0.2,1.8C2.1,16.9,1.8,17.5,1.7,18.1"/>
					<path class="st1" d="M0.8,22.5c-0.3-0.5-0.5-1-0.4-1.7l0.2-1.3l0.2-0.8c-0.2,0.8-0.1,1.5,0.3,1.9C0.9,21.2,0.8,21.9,0.8,22.5"
						/>
					<path class="st1" d="M0.7,27c-0.3-0.3-0.4-0.7-0.4-1.2c0-0.6-0.1-1.5-0.1-2.1c0,0.6,0.2,1,0.4,1.4C0.6,25.7,0.7,26.4,0.7,27"/>
					<path class="st1" d="M1.7,31.4c-0.2-0.2-0.3-0.4-0.4-0.7c-0.2-0.6-0.4-1.5-0.6-2.1c0.1,0.3,0.2,0.6,0.4,0.9
						C1.3,30.2,1.5,30.8,1.7,31.4"/>
					<path class="st1" d="M5.8,9c0-0.1,0.1-0.3,0.1-0.4c0.2-0.4,0.4-0.7,0.7-1.1c0.4-0.3,0.8-0.7,1.2-1C7.5,6.9,7.3,7.3,7.2,7.7
						C6.7,8.1,6.2,8.5,5.8,9"/>
					<path class="st1" d="M3.2,12.4c0-0.2,0.1-0.4,0.2-0.6c0.1-0.3,0.3-0.5,0.5-0.8C4.2,10.5,4.6,9.8,5,9.4L5.3,9
						c-0.5,0.6-0.8,1.1-1.1,1.9C3.9,11.4,3.5,11.9,3.2,12.4"/>
					<path class="st1" d="M1.4,16.2c0-0.1,0.1-0.3,0.1-0.4c0.2-0.6,0.6-1.5,0.8-2.1c0,0.3-0.1,0.5-0.2,0.8C1.8,15,1.6,15.6,1.4,16.2
						"/>
				</g>
			</g>
		</g>
	</g>
	<g>
		<path class="st1" d="M107.7,24.6c0-6.8,5.1-11.4,11.6-11.4c3.9,0,6.5,1.8,8.2,4c0.4,0.5,0.2,1.2-0.4,1.5l-1.5,0.8
			c-0.4,0.2-0.9,0.1-1.2-0.3c-1.2-1.5-3-2.5-5.1-2.5c-4.4,0-7.6,3.4-7.6,8s3.3,8,7.6,8c2.1,0,4-1,5.1-2.5c0.3-0.4,0.8-0.5,1.2-0.3
			l1.5,0.8c0.6,0.3,0.7,1,0.3,1.5c-1.7,2.2-4.3,4-8.2,4C112.7,36,107.7,31.4,107.7,24.6z"/>
		<path class="st1" d="M146.7,24.6c0-5.3,3-9.5,7.6-10.9c0.2-0.1,0.4-0.1,0.7-0.2c1-0.2,2-0.4,3-0.4c6.6,0,11.3,4.8,11.3,11.4
			S164.7,36,158,36C151.4,36,146.7,31.2,146.7,24.6z M165.4,24.6c0-4.6-2.9-8-7.3-8c-4.5,0-7.3,3.4-7.3,8c0,4.5,2.9,8,7.3,8
			S165.4,29.1,165.4,24.6z"/>
		<path class="st1" d="M99.2,13.5h-3.5c-0.4,0-0.8,0.3-0.9,0.6l-7.9,20.1c-0.3,0.7,0.2,1.4,0.9,1.4h2.3c0.4,0,0.8-0.3,0.9-0.6
			l1.4-3.6l1.1-3.4l1.1-3l2.8-7.5l4,10.5h-4c-0.4,0-0.8,0.3-1,0.7l-0.7,2.1c-0.1,0.3,0.1,0.7,0.5,0.7h6.2l1.4,3.6
			c0.1,0.4,0.5,0.6,0.9,0.6h2.3c0.7,0,1.2-0.7,0.9-1.4l-7.7-20.1C100,13.8,99.7,13.5,99.2,13.5z"/>
		<path class="st1" d="M86.8,22.7h-7.3V17h10.3c0.4,0,0.8-0.3,0.9-0.6l0.6-1.4c0.3-0.7-0.2-1.4-0.9-1.4H76.6c-0.6,0-1,0.4-1,1v20.1
			c0,0.6,0.4,1,1,1h1.9c0.6,0,1-0.4,1-1v-8.6h6.7c0.4,0,0.8-0.3,0.9-0.6l0.6-1.4C88,23.4,87.5,22.7,86.8,22.7z"/>
		<path class="st1" d="M129.8,13.5c-0.8,0-1.3,1-0.8,1.6l0.9,1.4c0.2,0.3,0.5,0.4,0.8,0.4h5.6v18.7h3.9V16.9h5.6
			c0.3,0,0.6-0.2,0.8-0.4c0.3-0.5,0.6-0.9,1-1.3c0.6-0.6,0.1-1.7-0.7-1.7H129.8z"/>
		<g>
			<path class="st1" d="M189.3,14.1l-4.5,10.8c-0.1,0.2-0.1,0.5,0,0.8l1.4,3.3c0.2,0.4,0.8,0.4,0.9,0l4.1-9.8v15.4c0,0.6,0.4,1,1,1
				h1.9c0.6,0,1-0.4,1-1V14.5c0-0.6-0.4-1-1-1h-3.9C189.8,13.5,189.5,13.7,189.3,14.1z"/>
			<path class="st1" d="M184.1,32.9c0.7,0,1.2-0.7,0.9-1.4l-1.5-3.5l0,0l-5.7-13.9c-0.2-0.4-0.5-0.6-0.9-0.6h-3.8c-0.6,0-1,0.4-1,1
				v20.1c0,0.6,0.4,1,1,1h1.9c0.6,0,1-0.4,1-1V19.2l5.4,13.1c0.2,0.4,0.5,0.6,0.9,0.6H184.1z"/>
		</g>
	</g>
</g>
<g>
	<path class="st1" d="M43.6,5.2h-0.7V4.9h1.8v0.3h-0.8v2.1h-0.3V5.2z"/>
	<path class="st1" d="M47,5.3l-0.8,2h-0.1l-0.8-2v2H45V4.9h0.4l0.7,1.8l0.7-1.8h0.4v2.4H47V5.3z"/>
</g>
<g>
	<path class="st1" d="M197.3,13.9h-0.7v-0.3h1.8v0.3h-0.8V16h-0.3V13.9z"/>
	<path class="st1" d="M200.7,14l-0.8,2h-0.1l-0.8-2v2h-0.3v-2.4h0.4l0.7,1.8l0.7-1.8h0.4V16h-0.3v-2H200.7z"/>
</g>
</svg>
