<svg xmlns="http://www.w3.org/2000/svg" xmlns:xlink="http://www.w3.org/1999/xlink" width="150" height="642" viewBox="0 0 150 643">
    <defs>
        <symbol id="view">
            <path d="m11.9 14.9c-6.4 0-11.5-6.6-11.7-6.9-0.2-0.2-0.2-0.6 0-0.9 0.2-0.3 5.3-6.9 11.7-6.9s11.5 6.7 11.7 6.9c0.2 0.3 0.2 0.7 0 0.9-0.2 0.3-5.2 7-11.7 7zm-10.1-7.4c1.2 1.4 5.4 5.9 10.1 5.9s8.9-4.4 10.1-5.9c-1.2-1.4-5.4-5.9-10.1-5.9-4.8 0-8.9 4.4-10.1 5.8l0 0zM11.9 12.4 11.9 12.4 11.9 12.4c-2.7 0-4.9-2.2-4.9-4.9s2.2-4.9 4.9-4.9 4.9 2.2 4.9 4.9-2.2 4.9-4.9 4.9zm0-8.2c-1.8 0-3.4 1.5-3.4 3.4s1.5 3.4 3.4 3.4c1.8 0 3.4-1.5 3.4-3.4s-1.5-3.4-3.4-3.4z" />
        </symbol>
        <symbol id="share">
            <g transform="scale(0.81)">
                <path d="m16.3 12.7c-1.2 0-2.2 0.6-2.8 1.4l-6.2-3.1c0.1-0.3 0.1-0.6 0.1-0.9 0-0.4-0.1-0.7-0.2-1l6.2-3.1c0.7 0.9 1.7 1.5 2.9 1.5 2 0 3.7-1.6 3.7-3.6 0-2-1.6-3.6-3.6-3.6-2 0-3.6 1.6-3.6 3.6 0 0.3 0.1 0.6 0.1 0.9l-6.2 3.2c-0.7-0.8-1.7-1.4-2.8-1.4-2 0-3.6 1.6-3.6 3.6s1.6 3.6 3.7 3.6c1.2 0 2.2-0.6 2.9-1.5l6.2 3.1c-0.1 0.3-0.2 0.7-0.2 1 0 2 1.6 3.6 3.7 3.6 2 0 3.7-1.6 3.7-3.6 0-2-1.6-3.6-3.6-3.6z" />
            </g>
        </symbol>
        <symbol id="loop">
            <path d="M19.7 18.3C19.7 18.3 18.3 19.7 18.3 19.7 18.3 19.7 12.9 14.3 12.9 14.3 11.6 15.4 9.9 16 8 16 3.6 16 0 12.4 0 8 0 3.6 3.6 0 8 0 12.4 0 16 3.6 16 8 16 9.9 15.4 11.6 14.3 12.9 14.3 12.9 19.7 18.3 19.7 18.3ZM8 2C4.7 2 2 4.7 2 8 2 11.3 4.7 14 8 14 11.3 14 14 11.3 14 8 14 4.7 11.3 2 8 2Z" />
        </symbol>
        <symbol id="menu">
            <rect width="20" height="2" />
            <rect y="6" width="20" height="2" />
            <rect y="12" width="20" height="2" />
        </symbol>
        <symbol id="asideBullet">
            <circle cx="2" cy="2" r="2" />
        </symbol>
        <symbol id="vkontakte">
            <g transform="scale(0.70)">
                <path d="m25 12.4c-0.1-0.1-0.5-1-2.5-2.8-2.1-1.9-1.8-1.6 0.7-4.9 1.6-2 2.2-3.2 2-3.7s-1.3-0.4-1.3-0.4h-3.8s-0.3 0-0.5 0.1-0.3 0.4-0.3 0.4-0.6 1.6-1.4 2.9c-1.7 2.8-2.4 2.9-2.6 2.7-0.6-0.4-0.5-1.6-0.5-2.5 0-2.7 0.4-3.8-0.8-4.1-0.5 0-0.8-0.1-1.8-0.1-1.4 0-2.6 0-3.2 0.3-0.4 0.2-0.8 0.7-0.6 0.7 0.3 0 0.8 0.1 1.1 0.5 0.4 0.5 0.4 1.7 0.4 1.7s0.2 3.2-0.5 3.6c-0.5 0.2-1.2-0.3-2.7-2.8-0.8-1.3-1.4-2.8-1.4-2.8s-0.1-0.2-0.3-0.4c-0.2-0.1-0.6-0.2-0.6-0.2h-3.6s-0.5 0-0.7 0.2 0 0.6 0 0.6 2.8 6.4 6 9.6c2.9 2.9 6.3 2.8 6.3 2.8h1.5s0.5 0 0.7-0.3c0.2-0.2 0.2-0.6 0.2-0.6s0-2 0.9-2.2c0.9-0.3 2.1 1.9 3.4 2.7 1 0.6 1.7 0.5 1.7 0.5h3.4c-0.1-0.1 1.7-0.2 0.8-1.5z" />
            </g>
        </symbol>
        <symbol id="facebook">
            <path id="f_1_" d="m9.4 28v-12.8h4.3l0.6-5h-4.9v-3.1c0-1.4 0.4-2.4 2.5-2.4h2.6v-4.5c-0.5-0.1-2-0.2-3.8-0.2-3.8 0-6.4 2.3-6.4 6.6v3.7h-4.3v5h4.3v12.7h5.1z" />
        </symbol>
        <symbol id="tweeter">
            <g transform="scale(0.6)">
                <path d="m23 2.2c-0.8 0.4-1.8 0.6-2.7 0.7 1-0.6 1.7-1.5 2.1-2.6-0.9 0.5-1.9 0.9-3 1.1-0.9-0.8-2.1-1.4-3.5-1.4-2.6 0-4.7 2.1-4.7 4.7 0 0.4 0 0.7 0.1 1.1-3.9-0.2-7.4-2.1-9.7-4.9-0.4 0.7-0.6 1.5-0.6 2.3 0 1.6 0.9 3.1 2.1 3.9-0.8 0-1.1-0.2-2.1-0.5v0.1c0 2.3 1.6 4.2 3.7 4.6-0.4 0.1-0.8 0.2-1.3 0.2-0.3 0-0.6 0-0.9-0.1 0.6 1.9 2.3 3.2 4.4 3.3-1.6 1.3-3.7 2-5.9 2-0.4 0-0.8 0-1.1-0.1 2.1 1.3 4.6 2.1 7.2 2.1 8.7 0 13.4-7.2 13.4-13.4v-0.6c1.1-0.7 1.9-1.5 2.5-2.5z" />
            </g>
        </symbol>
        <symbol id="instagram">
            <g transform="scale(.50040)">
                <path d="m43.4 4.8h-30.4c-5.3 0-9.6 4.3-9.6 9.6v30.4c0 5.3 4.3 9.6 9.6 9.6h30.4c5.3 0 9.6-4.3 9.6-9.6v-30.4c0-5.3-4.3-9.6-9.6-9.6zm2.8 5.7h1.1v8.4l-8.4 0 0-8.4 7.3 0zm-25 14c1.6-2.2 4.2-3.6 7.1-3.6s5.5 1.4 7.1 3.6c1 1.4 1.7 3.2 1.7 5.1 0 4.8-3.9 8.7-8.7 8.7s-8.7-3.9-8.7-8.7c0-1.9 0.6-3.7 1.7-5.1zm27 20.3c0 2.6-2.1 4.8-4.7 4.8h-30.4c-2.6 0-4.7-2.1-4.7-4.7v-20.3h7.4c-0.6 1.6-1 3.3-1 5.1 0 7.5 6.1 13.6 13.6 13.6s13.6-6.1 13.6-13.6c0-1.8-0.4-3.5-1-5.1h7.4v20.3z" />
            </g>
        </symbol>
        <symbol id="googleplus">
            <g transform="scale(.19)">
                <path d="M49.2 71h16.9c-1.9 7.8-7.9 12.2-17 12.2-10.8 0-19.6-8.6-19.6-19.2 0-10.6 8.8-19.2 19.6-19.2 4.7 0 9.3 1.7 12.8 4.7l8.1-9.2c-5.8-5-13.2-7.7-20.9-7.7-17.6 0-31.9 14.1-31.9 31.3 0 17.3 14.3 31.3 31.9 31.3 18 0 30.1-12.2 30.1-30.4v-6.1H49.2V71z" />
                <polygon points="117.1 58.7 106.1 58.7 106.1 47.7 98.1 47.7 98.1 58.7 87.1 58.7 87.1 66.7 98.1 66.7 98.1 77.7 106.1 77.7 106.1 66.7 117.1 66.7 " />
            </g>
        </symbol>
        <symbol id="pinterest">
            <g transform="scale(.3)">
                <path d="m30.4 4.6c-13.6 0-20.4 9.7-20.4 17.9 0 4.9 1.9 9.3 5.9 10.9 0.7 0.3 1.2 0 1.4-0.7 0.1-0.5 0.5-1.8 0.6-2.3 0.2-0.7 0.1-1-0.4-1.6-1.1-1.4-1.9-3.1-1.9-5.6 0-7.2 5.4-13.7 14.1-13.7 7.7 0 11.9 4.7 11.9 11 0 8.3-3.6 15.2-9.1 15.2-3 0-5.2-2.5-4.5-5.5 0.9-3.6 2.5-7.5 2.5-10.1 0-2.3-1.3-4.3-3.9-4.3-3.1 0-5.5 3.2-5.5 7.4 0 2.7 0.9 4.5 0.9 4.5s-3.1 13.3-3.7 15.6c-1.1 4.6-0.2 10.3-0.1 10.9 0.1 0.3 0.5 0.4 0.7 0.2 0.3-0.4 3.9-4.9 5.2-9.4 0.4-1.3 2-7.9 2-7.9 1 1.9 3.9 3.6 7 3.6 9.2 0 15.4-8.4 15.4-19.6 0-8.5-7.2-16.4-18.1-16.4z" />
            </g>
        </symbol>
        <symbol id="thumblr">
            <g transform="scale(.12)">
                <path d="m80.9 100.3c-3.1 0-5.8-0.7-8.2-2.1-1.8-1.1-3-2.5-3.7-4.2s-1-5.8-1-12v-27.6h25.5v-16.9h-25.5v-27.2h-15.3c-0.7 5.6-1.9 10.1-3.8 13.7-1.8 3.6-4.2 6.7-7.2 9.2-3 2.6-6.6 4.5-10.8 5.9v15.2h11.9v37.7c0 4.9 0.5 8.7 1.5 11.2 1 2.6 2.9 5 5.6 7.3 2.7 2.3 5.9 4.1 9.7 5.3 3.8 1.3 8.1 1.9 13 1.9 4.3 0 8.4-0.4 12.1-1.3 3.7-0.9 7.9-2.4 12.5-4.6v-16.9c-5.4 3.5-10.8 5.3-16.2 5.3z" />
            </g>
        </symbol>
        <symbol id="kav">
            <path id="path-1" class="cls-2" fill-rule="evenodd" d="m0 30.6h16.6v-16.5h-6.3v-0.6c0-4.2 2.8-6.7 8.2-7.3l-1.3-6.2c-10.6 0.3-17.3 4.9-17.3 17.2v13.4zm22.5 0h16.6v-16.5h-6.3v-0.4c0-4.3 2.8-6.8 8.3-7.5l-1.3-6.2c-10.5 0.3-17.3 4.9-17.3 17.2v13.4z" />
        </symbol>
        <symbol id="next_arrow">
            <path d="m34.9 19l-1.6-1.7s6.2-6.5 6.2-6.5h-39.4v-2.6h39.4s-6.2-6.5-6.2-6.5l1.7-1.7s9.1 9.5 9.1 9.5-9.1 9.5-9.1 9.5z" />
        </symbol>
        <symbol id="play_btn">
            <path d="M21.7 14.7L105.7 14.7C109.7 14.7 111.9 18.3 110.1 21.9L67.3 107.6C65.5 111.2 61.9 111.2 60.1 107.6L17.3 21.9C15.5 18.3 17.7 14.7 21.7 14.7z" />
        </symbol>
        <symbol id="prev_arrow">
            <path d="m44 10.8h-39.4s6.2 6.5 6.2 6.5l-1.6 1.7s-9.1-9.5-9.1-9.5 9.1-9.5 9.1-9.5l1.7 1.7s-6.2 6.5-6.2 6.5h39.4v2.6z" />
        </symbol>
        <symbol id="birdlogo">
            <g transform="scale(1.3)">
                <path d="M16.1 15C15.1 15 14.3 14.2 14.3 13.3 14.3 12.4 15.1 11.6 16.1 11.6 16.1 11.6 17 11.6 17 11.6 17 11.6 17 15 17 15 17 15 16.1 15 16.1 15ZM13.5 10.9C13.5 13.6 11.2 15 7.6 15 7.6 15 0 15 0 15 0 15 0 0 0 0 0 0 7.4 0 7.4 0 9.2 0 10.6 0.5 11.5 1.3 12.3 2 12.6 2.9 12.6 3.9 12.6 5.6 11.7 6.6 10.5 7.2 12.4 7.8 13.5 8.8 13.5 10.9ZM6.9 2.9C6.9 2.9 3.4 2.9 3.4 2.9 3.4 2.9 3.4 6.1 3.4 6.1 3.4 6.1 6.6 6.1 6.6 6.1 8.2 6.1 9.2 5.6 9.2 4.4 9.2 3.5 8.3 2.9 6.9 2.9ZM7.5 8.8C7.5 8.8 3.4 8.8 3.4 8.8 3.4 8.8 3.4 12.1 3.4 12.1 3.4 12.1 7.6 12.1 7.6 12.1 9.1 12.1 10 11.6 10 10.4 10 9.4 9.2 8.8 7.5 8.8Z" />
            </g>
        </symbol>
        <symbol id="goTop">
            <path d="M13.1 8.5C13.1 8.5 8.3 3.7 8.3 3.7 8.3 3.7 8.3 19.3 8.3 19.3 8.3 19.3 6.3 19.3 6.3 19.3 6.3 19.3 6.3 3.7 6.3 3.7 6.3 3.7 1.4 8.5 1.4 8.5 1.4 8.5 0 7.1 0 7.1 0 7.1 6.3 0.8 6.3 0.8 6.3 0.8 6.3 0.3 6.3 0.3 6.3 0.3 6.8 0.3 6.8 0.3 6.8 0.3 7.1 0 7.1 0 7.1 0 7.3 0.2 7.3 0.2 7.3 0.2 7.4 0 7.4 0 7.4 0 7.7 0.3 7.7 0.3 7.7 0.3 8.3 0.3 8.3 0.3 8.3 0.3 8.3 0.8 8.3 0.8 8.3 0.8 14.5 7.1 14.5 7.1 14.5 7.1 13.1 8.5 13.1 8.5Z" />
        </symbol>
        <symbol id="depositlogo">
            <g transform="scale(.8)">
                <path d="m105 6.8c-0.2-0.3-0.4-0.6-0.6-0.7-0.2-0.1-0.4-0.2-0.6-0.2-0.2 0-0.3 0.1-0.4 0.2-0.1 0.1-0.1 0.2-0.1 0.3 0 0.1 0 0.2 0.1 0.3 0.1 0.1 0.5 0.3 1 0.6 0.6 0.3 1.1 0.6 1.4 1.1 0.3 0.4 0.4 0.8 0.4 1.3 0 0.8-0.3 1.4-0.9 2-0.5 0.5-1.1 0.7-1.8 0.7-0.7 0-1.3-0.2-1.8-0.6-0.2-0.2-0.5-0.5-0.8-0.9 0 0 1.3-1.5 1.3-1.5 0.5 0.7 0.9 1 1.3 1 0.2 0 0.3-0.1 0.5-0.2 0.1-0.1 0.2-0.2 0.2-0.4 0-0.1 0-0.3-0.1-0.4-0.1-0.1-0.4-0.3-0.9-0.5-0.6-0.2-1.1-0.6-1.4-1-0.2-0.4-0.4-0.8-0.4-1.3 0-0.4 0.1-0.8 0.3-1.2 0.5-0.9 1.3-1.3 2.4-1.3 0.8 0 1.4 0.3 1.9 0.7 0.2 0.2 0.4 0.5 0.7 0.9l-1.4 1.3zm-6.3 4.9c-0.6 0.4-1.3 0.6-2 0.6-0.7 0-1.4-0.2-2.1-0.6-0.7-0.4-1.2-0.9-1.5-1.5-0.3-0.6-0.5-1.3-0.5-2 0-0.9 0.3-1.7 0.8-2.5 0.4-0.5 0.9-1 1.5-1.3 0.6-0.3 1.3-0.5 2-0.5 0.7 0 1.4 0.2 2 0.5 0.7 0.4 1.2 0.9 1.6 1.6 0.4 0.6 0.5 1.3 0.5 2 0 0.8-0.2 1.5-0.6 2.1-0.4 0.7-0.9 1.2-1.5 1.6zm-0.6-5.2c-0.4-0.4-0.9-0.5-1.4-0.5-0.6 0-1.1 0.2-1.5 0.6-0.4 0.4-0.6 0.9-0.6 1.5 0 0.6 0.2 1.2 0.7 1.6 0.4 0.4 0.9 0.5 1.4 0.5 0.7 0 1.2-0.2 1.7-0.7 0.4-0.4 0.6-0.9 0.6-1.4 0-0.6-0.2-1.1-0.7-1.6zm-7.2 2.8l0 0.5c0 0.1 0.1 0.2 0.2 0.3 0.1 0.1 0.3 0.2 0.5 0.2 0.2 0 0.3-0.1 1-0.2v2c-0.5 0.1-0.7 0.2-1 0.2-1.1 0-2-0.4-2.5-1.2-0.2-0.4-0.3-0.8-0.3-1.4v-3.6h-0.6v-2.2h0.6v-1.4s2.2-0.9 2.2-0.9v2.3h1.7v2.2h-1.7v3.2zm-4.8 2.4c-0.6 0.4-1.3 0.6-2 0.6s-1.4-0.2-2.1-0.6c-0.7-0.4-1.2-0.9-1.5-1.5-0.3-0.6-0.5-1.3-0.5-2 0-0.9 0.3-1.7 0.8-2.5 0.4-0.5 0.9-1 1.5-1.3 0.6-0.3 1.3-0.5 2-0.5s1.4 0.2 2 0.5c0.7 0.4 1.2 0.9 1.6 1.6 0.4 0.6 0.5 1.3 0.5 2 0 0.8-0.2 1.5-0.6 2.1-0.4 0.7-0.9 1.2-1.5 1.6zm-0.6-5.2c-0.4-0.4-0.9-0.5-1.4-0.5-0.6 0-1.1 0.2-1.5 0.6-0.4 0.4-0.6 0.9-0.6 1.5 0 0.6 0.2 1.2 0.7 1.6 0.4 0.4 0.9 0.5 1.4 0.5 0.7 0 1.2-0.2 1.7-0.7 0.4-0.4 0.5-0.9 0.5-1.4 0-0.6-0.2-1.1-0.7-1.6zm-6.9 5.8s-1.9-5.6-1.9-5.6c-0.1-0.4-0.3-0.6-0.4-0.7-0.1-0.1-0.3-0.1-0.4-0.1-0.4 0-0.8 0.2-1.1 0.5-0.2 0.3-0.4 0.7-0.4 1.2v4.8h-2.2v-12.2h2.2v4.5c0.3-0.3 0.7-0.5 0.9-0.6 0.3-0.1 0.6-0.2 1-0.2 0.5 0 1 0.2 1.4 0.5 0.4 0.3 0.8 0.9 1.1 1.9l2.1 6.2h-2.2zm-10.8 0c-0.6 0-1.2-0.1-1.6-0.3-0.1-0.1-0.3-0.2-0.6-0.3v3.4h-2.2s0-6.8 0-6.8c0-0.9 0.2-1.7 0.6-2.3 0.4-0.7 1-1.2 1.7-1.5 0.7-0.4 1.4-0.5 2.2-0.5 1.3 0 2.3 0.5 3.1 1.4 0.7 0.8 1.1 1.7 1.1 2.8 0 1.2-0.5 2.3-1.4 3.1-0.8 0.7-1.8 1.1-2.8 1.1zm1.5-5.8c-0.4-0.4-0.9-0.6-1.5-0.6-0.6 0-1.1 0.2-1.6 0.7-0.4 0.4-0.6 0.9-0.6 1.5 0 0.7 0.3 1.3 0.8 1.7 0.4 0.3 0.9 0.5 1.4 0.5 0.6 0 1.1-0.2 1.6-0.6 0.4-0.4 0.7-1 0.7-1.6 0-0.6-0.2-1.2-0.7-1.6zm-8.1 3.1l0 0.5c0 0.1 0.1 0.2 0.2 0.3 0.1 0.1 0.3 0.2 0.5 0.2 0.2 0 0.3-0.1 1-0.2v2c-0.5 0.1-0.7 0.2-1 0.2-1.1 0-2.1-0.4-2.5-1.2-0.2-0.4-0.3-0.8-0.3-1.4v-3.6h-0.5v-2.2h0.6v-1.4s2.2-0.8 2.2-0.8v2.3h1.7v2.2h-1.7v3.2zm-4.4-6.7c-0.3 0-0.6-0.1-0.8-0.4-0.2-0.2-0.3-0.5-0.3-0.8 0-0.3 0.1-0.6 0.4-0.8 0.2-0.2 0.5-0.2 0.7-0.2 0.3 0 0.5 0.1 0.7 0.3 0.3 0.2 0.4 0.5 0.4 0.9 0 0.3-0.1 0.6-0.4 0.8-0.2 0.2-0.4 0.3-0.7 0.3zm1.1 1.1v8.3h-2.2v-6.7l-1.4 1.3c-0.2-0.3-0.4-0.6-0.6-0.7-0.2-0.1-0.4-0.2-0.6-0.2-0.2 0-0.3 0.1-0.4 0.2-0.1 0.1-0.1 0.2-0.1 0.3 0 0.1 0 0.2 0.1 0.3 0.1 0.1 0.5 0.3 1.1 0.6 0.6 0.3 1.1 0.6 1.4 1.1 0.3 0.4 0.4 0.8 0.4 1.3 0 0.8-0.3 1.4-0.9 2-0.5 0.5-1.1 0.7-1.8 0.7-0.7 0-1.3-0.2-1.8-0.6-0.2-0.2-0.5-0.5-0.8-0.9 0 0 1.3-1.5 1.3-1.5 0.5 0.7 0.9 1 1.3 1 0.2 0 0.3-0.1 0.5-0.2 0.1-0.1 0.2-0.2 0.2-0.4 0-0.1 0-0.3-0.1-0.4-0.1-0.1-0.4-0.3-0.9-0.5-0.6-0.2-1.1-0.6-1.4-1-0.2-0.4-0.4-0.8-0.4-1.3 0-0.4 0.1-0.8 0.3-1.2 0.5-0.9 1.3-1.3 2.4-1.3 0.8 0 1.4 0.3 1.9 0.7 0.2 0.2 0.4 0.5 0.7 0.9v-1.6h2.2zm-9.9 7.8c-0.6 0.4-1.3 0.6-2 0.6-0.7 0-1.4-0.2-2.1-0.6-0.7-0.4-1.2-0.9-1.5-1.5-0.2-0.3-0.3-0.7-0.4-1.1-0.2 0.8-0.6 1.5-1.3 2.1-0.8 0.7-1.7 1.1-2.8 1.1-0.6 0-1.1-0.1-1.5-0.3-0.1-0.1-0.3-0.2-0.5-0.3v3.4h-2.2l0-6.8c0-0.9 0.2-1.6 0.5-2.2 0.4-0.7 1-1.2 1.7-1.6 0.7-0.4 1.4-0.6 2.1-0.6 1.3 0 2.3 0.5 3.1 1.4 0.5 0.6 0.8 1.2 1 1.9 0.1-0.5 0.3-1 0.7-1.5 0.4-0.5 0.9-1 1.5-1.3 0.6-0.3 1.3-0.5 2-0.5 0.7 0 1.4 0.2 2 0.5 0.7 0.4 1.2 0.9 1.6 1.6 0.4 0.6 0.5 1.3 0.5 2 0 0.8-0.2 1.5-0.6 2.1-0.4 0.7-0.9 1.2-1.5 1.6zm-8.7-5.2c-0.4-0.4-0.9-0.6-1.5-0.6-0.6 0-1.1 0.2-1.6 0.7-0.4 0.4-0.6 0.9-0.6 1.5 0 0.7 0.3 1.3 0.9 1.7 0.4 0.3 0.9 0.5 1.4 0.5 0.6 0 1.1-0.2 1.6-0.6 0.5-0.4 0.7-1 0.7-1.6 0-0.6-0.2-1.2-0.7-1.6zm8.1 0c-0.4-0.4-0.9-0.5-1.4-0.5-0.6 0-1.1 0.2-1.5 0.6-0.4 0.4-0.6 0.9-0.6 1.5 0 0.6 0.2 1.2 0.7 1.6 0.4 0.4 0.9 0.5 1.4 0.5 0.7 0 1.2-0.2 1.7-0.7 0.4-0.4 0.6-0.9 0.6-1.4 0-0.6-0.2-1.1-0.7-1.6zm-17.5 3.8c0.4 0 0.8-0.1 1.2-0.2 0.4-0.1 1-0.4 1.7-0.9l0 2.2c-0.3 0.2-0.6 0.4-0.9 0.5-0.6 0.3-1.2 0.4-1.9 0.4-0.7 0-1.4-0.2-2.1-0.5-0.7-0.4-1.2-0.9-1.6-1.6-0.1-0.2-0.2-0.4-0.3-0.6-0.3 0.7-0.8 1.3-1.4 1.9-0.8 0.6-1.7 1-2.7 1-1.2 0-2.3-0.5-3.1-1.4-0.7-0.8-1.1-1.8-1.1-2.8 0-0.7 0.2-1.4 0.6-2.1 0.4-0.7 0.9-1.2 1.6-1.6 0.6-0.4 1.3-0.5 2.1-0.5 1 0 1.7 0.3 2.2 0.8v-4.6h2.2v6.1c0 0 0 0 0 0 0.4-0.7 0.9-1.2 1.6-1.6 0.6-0.4 1.3-0.5 2.1-0.5 0.9 0 1.8 0.3 2.5 0.9 0.3 0.2 0.6 0.5 1 1l-4.3 4.3c0.3 0.1 0.5 0.2 0.7 0.2zm-6.4-3.7c-0.4-0.4-0.9-0.6-1.5-0.6-0.7 0-1.2 0.3-1.7 0.8-0.3 0.4-0.5 0.9-0.5 1.4 0 0.5 0.2 0.9 0.5 1.4 0.5 0.6 1 0.8 1.7 0.8 0.7 0 1.2-0.2 1.7-0.7 0.4-0.4 0.6-0.9 0.6-1.4 0-0.6-0.2-1.2-0.7-1.6zm7.3-0.4c-0.3-0.1-0.6-0.2-0.8-0.2-0.6 0-1.2 0.2-1.6 0.7-0.4 0.4-0.6 0.9-0.6 1.4 0 0.2 0.1 0.5 0.2 0.8l2.7-2.8zm-21.3 6.5c-0.7 0-1.1-0.2-1.6-0.4l0.6-1.3c0.2 0.2 0.5 0.3 0.8 0.3 0.3 0 0.5-0.1 0.6-0.4l-2.5-6.5h1.9l1.5 4.4 1.4-4.4h1.9s-2.5 6.6-2.5 6.6c-0.5 1.3-1 1.8-2.1 1.8zm-5.5-1.8c-1 0-1.6-0.4-2-1v0.8h-1.8v-8.8h1.8v3.3c0.5-0.6 1.1-1 2-1 1.5 0 2.9 1.2 2.9 3.4 0 2.2-1.4 3.3-2.9 3.3zm-0.5-5.1c-0.8 0-1.6 0.7-1.6 1.8 0 1.1 0.7 1.8 1.6 1.8s1.6-0.7 1.6-1.8c0-1.1-0.7-1.8-1.6-1.8z" />
            </g>
        </symbol>
    </defs>
    <use y="0" x="0" xlink:href="#view" fill="white" />
    <use y="35" x="45" xlink:href="#view" transform="scale(0.75)" fill="#797979" />
    <use y="25" x="0" xlink:href="#view" fill="#797979" />
    <use y="55" x="0" xlink:href="#share" fill="white" />
    <use y="148" x="70" xlink:href="#share" fill="white" />
    <use y="85" x="0" xlink:href="#share" fill="#797979" />
    <use y="73" x="40" xlink:href="#share" transform="scale(0.77)" fill="#797979" />
    <use y="115" x="0" xlink:href="#loop" fill="black" />
    <use y="115" x="30" xlink:href="#loop" fill="white" />
    <use y="115" x="60" xlink:href="#menu" fill="#333" />
    <use y="115" x="90" xlink:href="#menu" fill="#fff" />
    <use y="115" x="120" xlink:href="#asideBullet" fill="#333" />
    <use y="112" x="0" xlink:href="#loop" transform="scale(1.3)" fill="white" />
    <use y="148" x="30" xlink:href="#goTop" fill="#fafafa" />
    <use y="180" x="0" xlink:href="#vkontakte" fill="#5973a2" />
    <use y="180" x="35" xlink:href="#vkontakte" fill="white" />
    <use y="180" x="70" xlink:href="#vkontakte" fill="black" />
    <use y="205" x="0" xlink:href="#facebook" fill="#d2d2d1" />
    <use y="205" x="20" xlink:href="#facebook" fill="#3B5999" />
    <use y="468" x="0" xlink:href="#facebook" transform="scale(0.535)" fill="white" />
    <use y="468" x="46" xlink:href="#facebook" transform="scale(0.535)" fill="black" />
    <use y="285" x="0" xlink:href="#tweeter" fill="#60b1ff" />
    <use y="285" x="35" xlink:href="#tweeter" fill="white" />
    <use y="285" x="70" xlink:href="#tweeter" fill="black" />
    <use y="563" x="0" xlink:href="#instagram" transform="scale(0.568)" fill="white" />
    <use y="563" x="176" xlink:href="#instagram" transform="scale(0.568)" fill="black" />
    <use y="320" x="35" xlink:href="#instagram" fill="#3b3b3b" />
    <use y="320" x="69" xlink:href="#instagram" fill="white" />
    <use y="365" x="0" xlink:href="#googleplus" fill="white" />
    <use y="365" x="35" xlink:href="#googleplus" fill="black" />
    <use y="412" x="0" xlink:href="#pinterest" fill="white" />
    <use y="445" x="-4" xlink:href="#thumblr" fill="white" />
    <use y="595" x="0" xlink:href="#kav" fill="#333333" transform="scale(.8)" />
    <use y="475" x="60" xlink:href="#birdlogo" fill="#939393" />
    <use y="100" x="-600" xlink:href="#play_btn" stroke="white" stroke-width="4" fill="none" transform="rotate(-90 63.852531433105476,61.706134796142585) scale(0.568)" />
    <use y="520" x="0" xlink:href="#next_arrow" fill="#777777" />
    <use y="545" x="0" xlink:href="#prev_arrow" fill="#777777" />
    <use y="520" x="51" xlink:href="#next_arrow" fill="#000000" />
    <use y="545" x="51" xlink:href="#prev_arrow" fill="#000000" />
    <use y="520" x="100" xlink:href="#next_arrow" fill="#cccccc" />
    <use y="545" x="100" xlink:href="#prev_arrow" fill="#cccccc" />
    <use y="577" x="0" xlink:href="#depositlogo" fill="#a8a8a8" />
    <use y="600" x="0" xlink:href="#share" fill="#625b29" />
    <use y="628" x="0" xlink:href="#view" fill="#625b29" />
</svg>
